<svg width="283" height="283" viewBox="0 0 283 283" fill="none" xmlns="http://www.w3.org/2000/svg">
<circle cx="141.5" cy="141.5" r="141.5" fill="#A86AF8"/>
<circle cx="141.5" cy="81.5" r="46.5" fill="white" stroke="black" stroke-width="14"/>
<path d="M147.681 95.163L178.947 75.0254C186.732 70.0117 196.562 77.3579 193.959 86.2437L188.16 106.041C187.417 108.577 185.701 110.715 183.386 111.99L147.35 131.83C144.333 133.491 140.672 133.482 137.663 131.806L101.542 111.694C99.572 110.597 98.0305 108.866 97.1678 106.783L89.4358 88.1132C85.7631 79.2449 95.4807 70.7987 103.751 75.671L137.19 95.3718C140.446 97.2898 144.504 97.209 147.681 95.163Z" fill="black"/>
<path d="M135.342 95.163L104.075 75.0254C96.291 70.0117 86.4609 77.3579 89.0639 86.2437L94.863 106.041C95.6058 108.577 97.3221 110.715 99.6368 111.99L135.672 131.83C138.69 133.491 142.351 133.482 145.36 131.806L181.481 111.694C183.451 110.597 184.992 108.866 185.855 106.783L193.587 88.1132C197.26 79.2449 187.542 70.7987 179.272 75.671L145.833 95.3718C142.577 97.2898 138.518 97.209 135.342 95.163Z" fill="black"/>
<circle cx="141.5" cy="202.5" r="46.5" fill="white" stroke="black" stroke-width="14"/>
<path d="M139.602 197.796C141.023 196.731 142.977 196.731 144.398 197.796L179.185 223.852C181.707 225.742 181.155 229.671 178.209 230.792L142.332 244.444C141.393 244.802 140.354 244.792 139.421 244.418L105.604 230.856C102.708 229.695 102.198 225.813 104.695 223.942L139.602 197.796Z" fill="black"/>
</svg>
